<svg id="artasce-creative" data-name="artasce-creative-logo" xmlns="http://www.w3.org/2000/svg" viewBox="0 0 718.15 430.98">
  <g id="ac_logo">
    <g id="c" isolation="isolate" opacity=".6">
      <path d="m529.52,430.98c-54.02.03-105.94-20.91-144.82-58.41-85.28-81.99-89.53-217.06-9.58-304.25,78.08-85.53,210.71-91.58,296.25-13.5,15.24,13.91,28.34,29.99,38.88,47.73l-90.25,56.49c-29.55-49.8-93.87-66.22-143.67-36.67-8.88,5.27-16.93,11.82-23.89,19.44-39.9,43.58-37.77,111.02,4.79,152.01,20.28,19.64,47.67,30.18,75.88,29.2,38.68-1.5,73.51-23.86,90.96-58.41l94.08,49.31c-34.57,69.34-104.26,114.24-181.69,117.06h-6.94Z" fill="#fff"/>
    </g>
    <g id="a">
       <path d="m423.71,211.71C422.41,95.29,328.28,1.26,211.86.1,93.89,1.15-.92,97.57,0,215.54c-.8,117.92,93.94,214.26,211.85,215.44,37.33-.07,73.95-10.15,106.05-29.2v29.2h105.81v-219.27Zm-211.85,111.31c-59.49.93-108.46-46.55-109.38-106.03-.93-59.49,46.55-108.46,106.03-109.38,59.49-.93,108.46,46.55,109.38,106.03,0,.63.01,1.27.01,1.9.4,58.96-47.08,107.08-106.04,107.48,0,0,0,0,0,0Z" fill="#fff"/>
    </g>
  </g>
</svg>